<svg xmlns="http://www.w3.org/2000/svg" width="105.444" height="132.61" viewBox="0 0 105.444 132.61">
  <g id="Purple" transform="translate(-171.7 -77)">
    <circle id="Ellipse_1" data-name="Ellipse 1" cx="9.28" cy="9.28" r="9.28" transform="translate(215.164 77)" fill="#ed2390"/>
    <circle id="Ellipse_2" data-name="Ellipse 2" cx="9.28" cy="9.28" r="9.28" transform="translate(215.164 191.051)" fill="#ed2390"/>
    <path id="Path_1" data-name="Path 1" d="M171.729,613.938H199.2c.3-1.6.587-3.065.831-4.54,2.048-12.273,11.929-20.822,24.188-20.923A24.01,24.01,0,0,1,248.7,609.571c.516,3.738,1.776,4.9,5.428,4.8,7.49-.229,14.98-.072,23.014-.072-.229-20.149-8.12-35.415-24.331-45.655-19.433-12.259-39.411-11.815-58.4,1.074-15.252,10.354-22.555,25.3-22.713,44.223Z" transform="translate(0 -413.608)" fill="#430078"/>
    <path id="Path_2" data-name="Path 2" d="M171.729,140.794H199.2c.3,1.6.587,3.065.831,4.54,2.048,12.273,11.929,20.822,24.188,20.923A24.01,24.01,0,0,0,248.7,145.162c.516-3.738,1.776-4.9,5.428-4.8,7.49.229,14.98.072,23.014.072-.229,20.149-8.12,35.415-24.331,45.655-19.433,12.259-39.411,11.815-58.4-1.074-15.252-10.354-22.555-25.3-22.713-44.223Z" transform="translate(0 -54.285)" fill="#430078"/>
  </g>
</svg>