<svg id="Logo" xmlns="http://www.w3.org/2000/svg" width="206.568" height="54.548" viewBox="0 0 206.568 54.548">
  <g id="main_white" data-name="main white" transform="translate(-180.547 -600.3)">
    <path id="Path_89" data-name="Path 89" d="M451.716,671.153c-13.012,0-24.016-10.768-24.016-23.564,0-12.994,10.931-23.726,24.125-23.69,13.067.036,24,10.859,23.889,23.654A24.127,24.127,0,0,1,451.716,671.153Zm11.148-23.129a11.185,11.185,0,1,0-11.347,11.04A11.09,11.09,0,0,0,462.864,648.024Z" transform="translate(-202.38 -19.329)" fill="#fff"/>
    <circle id="Ellipse_18" data-name="Ellipse 18" cx="3.819" cy="3.819" r="3.819" transform="translate(277.189 623.574)" fill="#b072b0"/>
    <circle id="Ellipse_19" data-name="Ellipse 19" cx="3.819" cy="3.819" r="3.819" transform="translate(245.481 624.75)" fill="#ffcd05"/>
    <circle id="Ellipse_20" data-name="Ellipse 20" cx="3.819" cy="3.819" r="3.819" transform="translate(361.562 600.3)" fill="#8bd4e2"/>
    <circle id="Ellipse_21" data-name="Ellipse 21" cx="3.819" cy="3.819" r="3.819" transform="translate(361.562 647.21)" fill="#ed2390"/>
    <path id="Path_90" data-name="Path 90" d="M1081.818,779.652h11.293c.127-.67.235-1.267.344-1.864a10.044,10.044,0,0,1,9.954-8.6,9.861,9.861,0,0,1,10.062,8.669c.217,1.538.724,2.009,2.226,1.973,3.077-.091,6.153-.036,9.465-.036-.09-8.289-3.33-14.569-10.008-18.768-8-5.049-16.2-4.85-24.016.434-6.262,4.253-9.266,10.406-9.339,18.188Z" transform="translate(-738.101 -128.641)" fill="#fff"/>
    <path id="Path_91" data-name="Path 91" d="M1081.818,621.172h11.293c.127.67.235,1.267.344,1.864a10.045,10.045,0,0,0,9.954,8.6,9.862,9.862,0,0,0,10.062-8.669c.217-1.538.724-2.009,2.226-1.973,3.077.09,6.153.036,9.465.036-.09,8.289-3.33,14.569-10.008,18.768-8,5.049-16.2,4.85-24.016-.434-6.262-4.253-9.266-10.406-9.339-18.188Z" transform="translate(-738.101 -16.945)" fill="#fff"/>
    <path id="Path_92" data-name="Path 92" d="M714.491,666.836V654.529c.742-.127,1.43-.271,2.1-.38a11.073,11.073,0,0,0,9.682-10.841,10.878,10.878,0,0,0-9.755-10.967c-1.737-.235-2.262-.8-2.226-2.425.109-3.348.036-6.714.036-10.316,9.32.109,16.4,3.638,21.138,10.9,5.683,8.705,5.466,17.664-.507,26.17C730.164,663.488,723.251,666.763,714.491,666.836Z" transform="translate(-437.103 -15.807)" fill="#fff"/>
    <path id="Path_93" data-name="Path 93" d="M210.462,673.364H195.495L180.6,626.4h14.7l7.674,29.844,7.674-29.844h14.7l-14.895,46.964Z" transform="translate(0 -21.376)" fill="#fff"/>
    <path id="Path_94" data-name="Path 94" d="M892.856,650.791v5.23H910.23v12.343H879.5V621.4h30.4v12.216h-17.03v5.1H908.24v12.071H892.856Z" transform="translate(-572.413 -17.281)" fill="#fff"/>
  </g>
</svg>
