<svg xmlns="http://www.w3.org/2000/svg" width="149.207" height="944.851" viewBox="0 0 149.207 944.851">
  <g id="Pattern" transform="matrix(-0.017, 1, -1, -0.017, 626.424, -66.169)" opacity="0.1">
    <path id="Path_125" data-name="Path 125" d="M153.518,620.316C114.954,623.165,80.052,593.656,77.2,555.8c-2.849-38.463,27.168-72.754,66.241-75.5,38.666-2.747,73.466,26.965,76.01,64.817,2.544,38.259-27.372,72.347-65.936,75.2ZM181.5,549.292a397.516,397.516,0,1,0,.1-.1Z" transform="translate(0 0.32)" fill="#ed2690"/>
    <path id="Path_126" data-name="Path 126" d="M219.468,619.043c-.305-12.719-.61-24.624-.916-36.936,2.239-.407,4.274-.916,6.309-1.323,16.993-3.154,28.491-16.687,28.287-33.273-.305-16.789-12.516-30.323-30.119-32.154-5.189-.61-6.817-2.239-6.817-7.123,0-10.074-.407-20.147-.712-30.933,27.982-.407,49.452,9.667,64.206,31.137,17.705,25.744,17.705,52.607.407,78.554C266.275,607.85,245.721,618.127,219.468,619.043Z" transform="translate(2.428 0.27)" fill="#8cd4e2"/>
    <g id="Group_193" data-name="Group 193" transform="translate(289.461 475.942)">
      <path id="Path_127" data-name="Path 127" d="M285.9,477.939c10.888-.2,21.063-.305,31.544-.509.407,1.933.712,3.663,1.018,5.393,2.544,14.551,14.042,24.523,28.186,24.421,14.347,0,26.049-10.481,27.779-25.438.509-4.477,1.933-5.9,6.105-5.8,8.649.1,17.2-.2,26.456-.305,0,23.912-8.751,42.228-27.168,54.642-22.081,14.856-45.077,14.653-67.157-.305-17.705-12.007-26.354-29.61-26.863-52.1Z" transform="translate(-285.8 -475.7)" fill="#ffcd05"/>
      <path id="Path_128" data-name="Path 128" d="M409.086,615.493c-10.888.2-21.063.305-31.544.509-.407-1.933-.712-3.663-1.018-5.393-2.544-14.551-14.042-24.523-28.186-24.421-14.347,0-26.049,10.481-27.779,25.438-.509,4.477-1.933,5.9-6.105,5.8-8.649-.1-17.2.2-26.456.305,0-23.912,8.751-42.228,27.168-54.642,22.081-14.856,45.077-14.652,67.157.305,17.705,12.007,26.354,29.61,26.863,52.1Z" transform="translate(-285.761 -474.361)" fill="#ffcd05"/>
    </g>
    <path id="Path_129" data-name="Path 129" d="M686.368,607.543c-.305-12.719-.61-24.624-.916-36.936,2.239-.407,4.274-.916,6.309-1.323,16.993-3.154,28.491-16.688,28.287-33.273-.305-16.789-12.516-30.323-30.119-32.154-5.189-.611-6.817-2.239-6.817-7.123,0-10.074-.407-20.147-.712-30.933,27.982-.407,49.452,9.667,64.206,31.137,17.705,25.744,17.705,52.606.407,78.554C733.175,596.35,712.621,606.627,686.368,607.543Z" transform="translate(10.615 0.068)" fill="#8cd4e2"/>
    <g id="Group_194" data-name="Group 194" transform="translate(766.074 464.546)">
      <path id="Path_130" data-name="Path 130" d="M754.2,466.739c10.786-.2,20.961-.305,31.442-.509.407,1.933.712,3.663,1.018,5.393,2.544,14.449,13.94,24.421,27.982,24.319,14.245,0,25.845-10.379,27.575-25.337.509-4.375,1.933-5.8,6.105-5.8,8.547.1,17.094-.2,26.354-.305,0,23.81-8.649,41.922-26.965,54.336-21.979,14.856-44.873,14.653-66.75-.305-17.6-12.007-26.252-29.508-26.761-51.793Z" transform="translate(-754.2 -464.5)" fill="#ffcd05"/>
      <path id="Path_131" data-name="Path 131" d="M876.776,603.588c-10.786.2-20.961.305-31.442.509-.407-1.933-.712-3.663-1.018-5.393-2.544-14.449-13.94-24.421-27.982-24.319-14.246,0-25.845,10.379-27.575,25.337-.509,4.375-1.933,5.8-6.105,5.8-8.547-.1-17.095.2-26.354.305,0-23.81,8.649-41.922,26.965-54.336,21.979-14.856,44.873-14.653,66.75.305,17.6,12.007,26.252,29.508,26.761,51.792Z" transform="translate(-754.163 -463.168)" fill="#ffcd05"/>
    </g>
    <circle id="Ellipse_46" data-name="Ellipse 46" cx="69.192" cy="69.192" r="69.192" transform="translate(405.765 473.195)" fill="#8951a0"/>
    <path id="Path_132" data-name="Path 132" d="M620.418,609.616c-38.565,2.849-73.466-26.659-76.315-64.512-2.849-38.463,27.168-72.754,66.241-75.5,38.666-2.747,73.466,26.965,76.01,64.817C688.9,572.679,658.983,606.767,620.418,609.616ZM648.4,538.592a391.576,391.576,0,1,0,.1-.1Z" transform="translate(8.187 0.132)" fill="#ed2690"/>
    <circle id="Ellipse_47" data-name="Ellipse 47" cx="68.785" cy="68.785" r="68.785" transform="translate(881.666 461.9)" fill="#8951a0"/>
  </g>
</svg>
