<svg xmlns="http://www.w3.org/2000/svg" width="738.541" height="398.643" viewBox="0 0 738.541 398.643">
  <g id="undraw_team_collaboration_re_ow29" transform="translate(-0.005 0)">
    <path id="Path_270" data-name="Path 270" d="M182.929,617.849l-2.3,11.558c-.174.884-.355,1.783-.552,2.675a11.268,11.268,0,0,0-5.791.323,54.028,54.028,0,0,1,3.976,6.651c-1.452,4.473-3.582,8.607-7.148,11.6a17.924,17.924,0,0,1-17.317,3.045l.1-.458c-3.834-7.44-1.751-16.82,3.014-23.692a46.057,46.057,0,0,1,8.56-9.049c3.219-2.682,6.7-5.089,10.146-7.463a4.726,4.726,0,0,1,7.313,4.813Z" transform="translate(-136.149 -284.916)" fill="#ffcd05"/>
    <path id="a4b268fa-75d0-4ac1-9d87-14bdca948464-2189" d="M154.935,687.773c-.97-7.063-1.967-14.216-1.287-21.356a33.586,33.586,0,0,1,6.476-17.61A29.293,29.293,0,0,1,167.641,642c.752-.473,1.443.717.7,1.189a27.85,27.85,0,0,0-11.016,13.291c-2.4,6.1-2.783,12.75-2.367,19.229.25,3.919.779,7.81,1.314,11.7a.71.71,0,0,1-.481.847.693.693,0,0,1-.847-.481Z" transform="translate(-136.469 -291.181)" fill="#f2f2f2"/>
    <path id="Path_271" data-name="Path 271" d="M165.581,250.215q50.693-.881,101.4-.253t101.36,2.78q28.429,1.206,56.835,2.889c1.521.09,1.516-2.277,0-2.367q-50.612-2.995-101.3-4.482t-101.388-1.45q-28.455.019-56.906.516a1.184,1.184,0,0,0,0,2.367Z" transform="translate(-138.794 -207.901)" fill="#8bd4e2"/>
    <path id="Path_272" data-name="Path 272" d="M464.118,231.246l14.778-1.1c1.51-.112,1.522-2.48,0-2.367l-14.778,1.1C462.608,228.992,462.6,231.36,464.118,231.246Z" transform="translate(-201.808 -203.774)" fill="#ed2390"/>
    <path id="Path_273" data-name="Path 273" d="M464.118,249.246l14.778-1.1c1.51-.112,1.522-2.48,0-2.367l-14.778,1.1C462.608,246.992,462.6,249.36,464.118,249.246Z" transform="translate(-201.808 -207.573)" fill="#ed2390"/>
    <path id="Path_274" data-name="Path 274" d="M462.71,241.32l21.011,1.908c1.516.138,1.507-2.23,0-2.367l-21.011-1.908C461.193,238.816,461.2,241.183,462.71,241.32Z" transform="translate(-201.511 -206.132)" fill="#ed2390"/>
    <path id="Path_275" data-name="Path 275" d="M175.547,228.141a5.235,5.235,0,0,0-4.839,3.16,4.713,4.713,0,0,0,1.085,5.6,5.6,5.6,0,0,0,5.309,1.078,4.736,4.736,0,0,0,3.174-4.452,5.292,5.292,0,0,0-3.3-5.1,1.188,1.188,0,0,0-1.456.827,1.217,1.217,0,0,0,.827,1.456c.206.08-.188-.1,0,0,.079.043.16.082.238.128s.129.082.194.124c.221.144-.108-.106.033.024.122.112.244.222.355.346.042.047.207.177.079.086-.1-.07-.038-.053,0,0s.059.084.087.127a4.216,4.216,0,0,1,.251.434c.017.035.033.07.051.1.033.065.081.081,0,0s-.027-.072,0,0c.018.049.037.1.054.146a4.567,4.567,0,0,1,.14.487c.017.076.031.153.046.229.053.272-.008-.169.005.033.011.169.023.335.02.5q0,.116-.01.232c0,.039-.007.077-.01.115-.012.186-.013-.068.013-.085a2.184,2.184,0,0,0-.107.487c-.021.074-.046.146-.07.218-.082.254.077-.138-.01.035a4.331,4.331,0,0,1-.242.434c-.039.059-.184.191-.065.1s-.068.072-.11.116-.11.112-.168.165a1.343,1.343,0,0,1-.117.1c-.008,0,.2-.137.087-.066-.141.09-.274.186-.422.264-.017.009-.207.1-.206.1-.008-.032.244-.089.071-.033-.036.012-.072.026-.108.038a3.865,3.865,0,0,1-.481.128c-.037.007-.077.011-.113.021-.122.032.117-.019.124-.014a1.034,1.034,0,0,0-.269.024,4.4,4.4,0,0,1-.5,0l-.116-.008c-.09-.005-.156-.07-.036,0,.093.054.085.015,0,0l-.115-.02a4.578,4.578,0,0,1-.492-.121c-.087-.027-.172-.057-.258-.087a.689.689,0,0,1-.109-.042c0-.01.221.106.1.043-.148-.08-.3-.146-.445-.234-.077-.046-.151-.1-.226-.147a.723.723,0,0,1-.094-.067c0-.01.183.158.088.067-.12-.115-.249-.217-.362-.339-.026-.028-.051-.057-.077-.085l-.025-.029q-.1-.118,0,0c.063.018.06.087,0,0l-.065-.095a2.47,2.47,0,0,1-.245-.437c.006,0,.1.285.029.066-.014-.041-.03-.082-.043-.123q-.041-.123-.072-.249c-.02-.083-.031-.169-.052-.251-.035-.139.02.11.014.1s-.011-.14-.013-.169c-.009-.186.012-.366.015-.551,0-.143-.012.111-.015.1a.4.4,0,0,1,.022-.126c.021-.1.041-.195.068-.291s.065-.219.1-.327c.015-.04.032-.08.046-.12.05-.149-.1.179-.017.045.113-.184.2-.384.316-.566.028-.043.2-.284.109-.162s.094-.108.129-.147c.145-.162.316-.294.466-.449.089-.092-.062.045-.071.051.047-.033.092-.068.139-.1q.123-.085.253-.161c.1-.057.207-.1.3-.16.111-.071-.085.031-.089.033a.882.882,0,0,1,.159-.06c.092-.032.49-.2.574-.151,0,0-.3.024-.061.008.057,0,.114-.009.171-.012.116,0,.231,0,.346,0a1.191,1.191,0,0,0,1.183-1.183,1.21,1.21,0,0,0-1.183-1.183Z" transform="translate(-140.015 -203.851)" fill="#ed2390"/>
    <path id="Path_276" data-name="Path 276" d="M196.547,228.141a5.235,5.235,0,0,0-4.839,3.16,4.713,4.713,0,0,0,1.085,5.6,5.6,5.6,0,0,0,5.309,1.078,4.736,4.736,0,0,0,3.174-4.452,5.292,5.292,0,0,0-3.3-5.1,1.188,1.188,0,0,0-1.456.827,1.217,1.217,0,0,0,.827,1.456c.206.08-.188-.1,0,0,.079.043.16.082.238.128s.129.082.194.124c.221.144-.108-.106.033.024.122.112.244.222.355.346.042.047.207.177.079.086-.1-.07-.038-.053,0,0s.059.084.087.127a4.216,4.216,0,0,1,.251.434c.017.035.033.07.051.1.033.065.081.081,0,0s-.027-.072,0,0c.018.049.037.1.054.146a4.564,4.564,0,0,1,.14.487c.017.076.031.153.046.229.053.272-.008-.169.005.033.011.169.023.335.02.5q0,.116-.01.232c0,.039-.007.077-.01.115-.012.186-.013-.068.013-.085a2.187,2.187,0,0,0-.107.487c-.021.074-.046.146-.07.218-.082.254.077-.138-.01.035a4.328,4.328,0,0,1-.242.434c-.039.059-.184.191-.065.1s-.068.072-.11.116-.11.112-.168.165a1.334,1.334,0,0,1-.117.1c-.008,0,.2-.137.087-.066-.141.09-.274.186-.422.264-.017.009-.207.1-.206.1-.008-.032.244-.089.071-.033-.036.012-.072.026-.108.038a3.865,3.865,0,0,1-.481.128c-.037.007-.077.011-.113.021-.122.032.117-.019.124-.014a1.034,1.034,0,0,0-.269.024,4.4,4.4,0,0,1-.5,0l-.116-.008c-.09-.005-.156-.07-.036,0,.093.054.085.015,0,0l-.115-.02a4.577,4.577,0,0,1-.492-.121c-.087-.027-.172-.057-.258-.087a.687.687,0,0,1-.109-.042c0-.01.221.106.1.043-.148-.08-.3-.146-.445-.234-.077-.046-.151-.1-.226-.147a.723.723,0,0,1-.094-.067c0-.01.183.158.088.067-.12-.115-.249-.217-.362-.339-.026-.028-.051-.057-.077-.085l-.025-.029q-.1-.118,0,0c.063.018.06.087,0,0l-.065-.095a2.472,2.472,0,0,1-.245-.437c.006,0,.1.285.029.066-.014-.041-.03-.082-.043-.123q-.041-.123-.072-.249c-.02-.083-.031-.169-.052-.251-.035-.139.02.11.014.1s-.011-.14-.013-.169c-.009-.186.012-.366.015-.551,0-.143-.012.111-.015.1a.4.4,0,0,1,.022-.126c.021-.1.041-.195.068-.291s.065-.219.1-.327c.015-.04.032-.08.046-.12.05-.149-.1.179-.017.045.113-.184.2-.384.316-.566.028-.043.2-.284.109-.162s.094-.108.128-.147c.145-.162.316-.294.466-.449.089-.092-.062.045-.071.051.047-.033.092-.068.139-.1q.123-.085.253-.161c.1-.057.207-.1.3-.16.111-.071-.085.031-.089.033a.882.882,0,0,1,.159-.06c.092-.032.49-.2.574-.151,0,0-.3.024-.061.008.057,0,.114-.009.171-.012.116,0,.231,0,.346,0a1.191,1.191,0,0,0,1.183-1.183,1.21,1.21,0,0,0-1.183-1.183Z" transform="translate(-144.447 -203.851)" fill="#ed2390"/>
    <path id="Path_277" data-name="Path 277" d="M217.547,228.141a5.235,5.235,0,0,0-4.839,3.16,4.713,4.713,0,0,0,1.084,5.6,5.6,5.6,0,0,0,5.309,1.078,4.736,4.736,0,0,0,3.174-4.452,5.292,5.292,0,0,0-3.3-5.1,1.188,1.188,0,0,0-1.456.827,1.217,1.217,0,0,0,.827,1.456c.206.08-.188-.1,0,0,.079.043.16.082.238.128s.129.082.194.124c.221.144-.108-.106.033.024.122.112.244.222.355.346.042.047.207.177.079.086-.1-.07-.038-.053,0,0s.059.084.087.127a4.214,4.214,0,0,1,.251.434c.017.035.033.07.051.1.033.065.081.081,0,0s-.027-.072,0,0c.018.049.037.1.054.146a4.56,4.56,0,0,1,.14.487c.017.076.031.153.046.229.053.272-.008-.169.005.033.011.169.023.335.02.5q0,.116-.01.232c0,.039-.007.077-.01.115-.012.186-.013-.068.013-.085a2.183,2.183,0,0,0-.107.487c-.021.074-.046.146-.07.218-.082.254.077-.138-.01.035a4.319,4.319,0,0,1-.242.434c-.039.059-.184.191-.065.1s-.068.072-.11.116-.11.112-.168.165a1.338,1.338,0,0,1-.117.1c-.008,0,.2-.137.087-.066-.141.09-.274.186-.422.264-.017.009-.207.1-.206.1-.008-.032.244-.089.071-.033-.036.012-.072.026-.108.038a3.865,3.865,0,0,1-.481.128c-.037.007-.077.011-.113.021-.122.032.117-.019.124-.014a1.034,1.034,0,0,0-.269.024,4.4,4.4,0,0,1-.5,0l-.116-.008c-.09-.005-.156-.07-.036,0,.093.054.085.015,0,0l-.115-.02a4.579,4.579,0,0,1-.492-.121c-.087-.027-.172-.057-.258-.087a.689.689,0,0,1-.109-.042c0-.01.221.106.1.043-.148-.08-.3-.146-.445-.234-.077-.046-.151-.1-.226-.147a.726.726,0,0,1-.094-.067c0-.01.184.158.088.067-.12-.115-.249-.217-.362-.339-.026-.028-.051-.057-.077-.085l-.025-.029q-.1-.118,0,0c.063.018.06.087,0,0l-.065-.095a2.471,2.471,0,0,1-.245-.437c.006,0,.1.285.029.066-.014-.041-.03-.082-.043-.123q-.041-.123-.072-.249c-.02-.083-.031-.169-.052-.251-.035-.139.02.11.014.1s-.011-.14-.013-.169c-.009-.186.012-.366.015-.551,0-.143-.012.111-.015.1a.4.4,0,0,1,.022-.126c.021-.1.041-.195.068-.291s.065-.219.1-.327c.015-.04.032-.08.046-.12.05-.149-.1.179-.017.045.113-.184.2-.384.316-.566.028-.043.2-.284.109-.162s.094-.108.128-.147c.145-.162.316-.294.466-.449.089-.092-.062.045-.071.051.047-.033.092-.068.139-.1q.123-.085.252-.161c.1-.057.207-.1.3-.16.111-.071-.085.031-.089.033a.88.88,0,0,1,.159-.06c.092-.033.49-.2.574-.151,0,0-.3.024-.061.008.057,0,.114-.009.171-.012.116,0,.231,0,.346,0a1.191,1.191,0,0,0,1.183-1.183,1.21,1.21,0,0,0-1.183-1.183Z" transform="translate(-148.88 -203.851)" fill="#ed2390"/>
    <path id="Path_278" data-name="Path 278" d="M440.988,483.733H150.736a13.859,13.859,0,0,1-13.844-13.843V211.2a13.859,13.859,0,0,1,13.844-13.844H440.988A13.859,13.859,0,0,1,454.832,211.2V469.89A13.859,13.859,0,0,1,440.988,483.733ZM150.737,198.93A12.28,12.28,0,0,0,138.471,211.2V469.89a12.28,12.28,0,0,0,12.266,12.265H440.988a12.28,12.28,0,0,0,12.266-12.265V211.2a12.28,12.28,0,0,0-12.266-12.266Z" transform="translate(-132.98 -197.352)" fill="#020202"/>
    <path id="Path_279" data-name="Path 279" d="M153.525,419.613,255.6,419.3l101.55-.309,57.285-.174a1.184,1.184,0,0,0,0-2.367l-102.071.31-101.55.309-57.285.174a1.184,1.184,0,0,0,0,2.367Z" transform="translate(-136.249 -243.598)" fill="#e6e6e6"/>
    <path id="Path_280" data-name="Path 280" d="M218.467,407.75l.631-37.267a1.184,1.184,0,0,0-2.367,0L216.1,407.75A1.184,1.184,0,0,0,218.467,407.75Z" transform="translate(-149.698 -233.654)" fill="#e6e6e6"/>
    <path id="Path_281" data-name="Path 281" d="M280.3,402.119l1.538-46.842.439-13.383c.05-1.523-2.317-1.522-2.367,0l-1.538,46.842-.439,13.384C277.886,403.642,280.253,403.64,280.3,402.119Z" transform="translate(-162.75 -227.62)" fill="#8bd4e2"/>
    <path id="Path_282" data-name="Path 282" d="M341.648,313.748c-.928,16.591-2.644,65.528-3.572,82.12-.085,1.522,2.282,1.517,2.367,0,.928-16.591,2.644-65.528,3.572-82.12C344.1,312.226,341.733,312.231,341.648,313.748Z" transform="translate(-175.443 -221.68)" fill="#8bd4e2"/>
    <path id="Path_283" data-name="Path 283" d="M403.9,394.12l-.29,15.947a1.184,1.184,0,0,0,2.367,0c.343-18.834,1.221-18.22,1.318-23.536a1.184,1.184,0,0,0-2.367,0S404.241,375.285,403.9,394.12Z" transform="translate(-189.276 -236.579)" fill="#8bd4e2"/>
    <path id="Path_284" data-name="Path 284" d="M464.088,343.635l.268,44.739.077,12.811a1.184,1.184,0,0,0,2.367,0l-.268-44.739-.077-12.811a1.184,1.184,0,0,0-2.367,0Z" transform="translate(-202.041 -227.987)" fill="#8bd4e2"/>
    <path id="Path_285" data-name="Path 285" d="M153.309,397.486c-1.959-5.384,2.457-10.562,6.995-12.888,5.437-2.788,11.691-3.419,17.185-6.106,8.191-4.006,14.157-11.2,19.465-18.393,5.464-7.407,10.463-15.358,17.406-21.512a34.865,34.865,0,0,1,12.677-7.336,43.69,43.69,0,0,1,18.312-1.229c12.638,1.538,24.353,6.758,36.546,10.075,11.5,3.128,24.163,4.887,35.447.023,5.733-2.471,10.421-6.616,15.457-10.2a51.512,51.512,0,0,1,16.1-7.767,47.88,47.88,0,0,1,34.244,3.016,45.95,45.95,0,0,1,21.672,22.873c5,11.943,4.349,25.29,2.715,37.861-.422,3.249-.925,6.488-1.432,9.725-.234,1.49,2.046,2.132,2.282.629,2.034-12.963,4.061-26.336,1.531-39.38a47.7,47.7,0,0,0-17.618-28.7,48.948,48.948,0,0,0-32.276-10.186,52.919,52.919,0,0,0-17.73,3.943c-5.853,2.421-10.81,6.01-15.845,9.786-5.176,3.882-10.512,7.094-16.939,8.36a50.466,50.466,0,0,1-18.925-.392c-12.806-2.393-24.743-7.878-37.44-10.688-11.764-2.6-24.459-2.864-34.993,3.782-8.1,5.112-13.829,13.049-19.325,20.713-5.447,7.6-10.963,15.72-18.928,20.909-4.859,3.165-10.321,4.334-15.756,6.114s-10.681,4.8-12.9,10.379a10.093,10.093,0,0,0-.207,7.222c.517,1.42,2.8.807,2.282-.629Z" transform="translate(-135.843 -222.804)" fill="#8bd4e2"/>
    <path id="Path_286" data-name="Path 286" d="M86.17,166.905l0,0,.006,0Z" transform="translate(-18.186 -35.229)" fill="#e6e6e6"/>
    <path id="Path_287" data-name="Path 287" d="M220.946,360.858a4.7,4.7,0,0,0-5.7-2.109,4.139,4.139,0,0,0-2.358,2.2c-.045.107-.072.22-.109.33-.051.083-.113.158-.159.245a4.7,4.7,0,0,0,7.33,5.616A5.062,5.062,0,0,0,220.946,360.858Zm-2.964,2.01C217.992,362.928,217.988,362.983,217.982,362.868Zm-.3-.685Zm-1.328.534C216.335,362.69,216.333,362.685,216.353,362.717Zm.315.267C216.742,363.009,216.713,363,216.668,362.984Zm.141.067.031-.014a.039.039,0,0,1-.022,0h0l.024,0,0,0-.014,0c.012,0,.014,0,.014,0,.141-.064.046-.033-.036-.008h-.005a.537.537,0,0,0-.162-.052l-.016-.008c-.045-.032-.274-.211-.062-.024-.046-.041-.092-.081-.135-.125a.619.619,0,0,1-.069-.085q-.042-.072-.081-.145l0-.026c0-.022-.006-.031-.009-.044s0-.028.006-.042a.512.512,0,0,0,.03-.132l.009-.012c.034-.047.064-.1.1-.152-.171.26.067-.029.085-.065,0-.006,0,0,0-.007s0,0,.013-.006c.053-.031.1-.066.158-.1s.318-.108.055-.032c.06-.017.117-.039.177-.054.011,0,.1-.015.147-.024l.087,0,.059,0c-.044.006.15.048.207.056l.024.019c.048.035.107.067.159.1-.229-.148,0,.012.047.055.026.026.05.054.075.082a.634.634,0,0,1,.061.084c.038.069.077.138.117.206l.011.017a.061.061,0,0,0,0,.007,1.872,1.872,0,0,0,.091.322.255.255,0,0,1,0,.027c0,.06.009.12.009.18v.012a1.3,1.3,0,0,0-1.183-.009Z" transform="translate(-148.859 -231.359)" fill="#8bd4e2"/>
    <path id="Path_288" data-name="Path 288" d="M218.115,364.255s0,0,0,0Z" transform="translate(-150.123 -232.581)" fill="#e6e6e6"/>
    <path id="Path_289" data-name="Path 289" d="M218.113,364.255h0Z" transform="translate(-150.123 -232.581)" fill="#e6e6e6"/>
    <path id="Path_290" data-name="Path 290" d="M218.113,364.257h0Z" transform="translate(-150.122 -232.581)" fill="#e6e6e6"/>
    <path id="Path_291" data-name="Path 291" d="M86.177,166.9Z" transform="translate(-18.188 -35.228)" fill="#e6e6e6"/>
    <path id="Path_292" data-name="Path 292" d="M150.17,138.9l0,0,.006,0Z" transform="translate(-31.695 -29.319)" fill="#e6e6e6"/>
    <path id="Path_293" data-name="Path 293" d="M284.946,332.858a4.7,4.7,0,0,0-5.7-2.109,4.139,4.139,0,0,0-2.358,2.2c-.045.107-.072.22-.109.33-.051.083-.113.158-.159.245a4.7,4.7,0,0,0,7.33,5.616A5.062,5.062,0,0,0,284.946,332.858Zm-2.964,2.01C281.992,334.928,281.988,334.983,281.982,334.868Zm-.3-.685Zm-1.328.534C280.335,334.69,280.333,334.685,280.353,334.717Zm.315.267C280.742,335.009,280.713,335,280.667,334.984Zm.141.067.031-.014a.039.039,0,0,1-.022,0h0l.024,0,0,0-.014,0c.012,0,.014,0,.014,0,.141-.065.045-.034-.036-.008h-.005a.539.539,0,0,0-.162-.052l-.016-.008c-.045-.032-.274-.211-.062-.024-.046-.041-.092-.081-.135-.125a.621.621,0,0,1-.069-.085q-.042-.072-.081-.145l0-.026c0-.022-.006-.031-.009-.044s0-.028.006-.042a.51.51,0,0,0,.03-.132l.009-.012c.034-.047.064-.1.1-.152-.172.261.067-.029.085-.065,0-.006,0,0,0-.007s0,0,.013-.006c.053-.031.1-.066.157-.1s.318-.108.055-.033c.06-.017.117-.039.177-.054.011,0,.1-.015.147-.024l.087,0,.059,0c-.044.006.15.048.207.056l.024.019c.049.035.107.067.159.1-.229-.148,0,.012.047.055.026.026.05.054.075.082a.642.642,0,0,1,.061.084c.038.069.077.138.117.206l.011.017a.06.06,0,0,0,0,.007,1.872,1.872,0,0,0,.091.322.269.269,0,0,1,0,.027c0,.06.009.12.009.18v.012a1.3,1.3,0,0,0-1.182-.009Z" transform="translate(-162.367 -225.449)" fill="#8bd4e2"/>
    <path id="Path_294" data-name="Path 294" d="M282.113,336.257h0Z" transform="translate(-163.631 -226.671)" fill="#e6e6e6"/>
    <path id="Path_295" data-name="Path 295" d="M150.177,138.9Z" transform="translate(-31.697 -29.318)" fill="#e6e6e6"/>
    <path id="Path_296" data-name="Path 296" d="M282.115,336.255s0,0,0,0Z" transform="translate(-163.632 -226.671)" fill="#e6e6e6"/>
    <path id="Path_297" data-name="Path 297" d="M282.113,336.255h0Z" transform="translate(-163.632 -226.671)" fill="#e6e6e6"/>
    <path id="Path_298" data-name="Path 298" d="M212.177,152.9Z" transform="translate(-44.783 -32.273)" fill="#e6e6e6"/>
    <path id="Path_299" data-name="Path 299" d="M346.946,304.858a4.7,4.7,0,0,0-5.7-2.109,4.139,4.139,0,0,0-2.358,2.2c-.045.107-.072.22-.109.33-.051.083-.113.158-.159.245a4.7,4.7,0,0,0,7.33,5.616A5.062,5.062,0,0,0,346.946,304.858Zm-2.964,2.01C343.992,306.928,343.988,306.983,343.982,306.868Zm-.3-.685Zm-1.328.534C342.335,306.69,342.333,306.685,342.353,306.717Zm.315.267C342.742,307.009,342.713,307,342.668,306.984Zm.141.067.031-.014a.039.039,0,0,1-.022,0h0l.024,0,0,0-.014,0c.012,0,.014,0,.014,0,.141-.064.046-.033-.036-.008h-.005a.539.539,0,0,0-.162-.052l-.016-.008c-.045-.032-.274-.211-.062-.024-.046-.041-.092-.081-.135-.125a.621.621,0,0,1-.069-.085q-.042-.072-.081-.145l0-.026c0-.022-.006-.031-.009-.044s0-.028.006-.042a.514.514,0,0,0,.03-.132l.009-.012c.034-.047.064-.1.1-.152-.172.26.067-.029.085-.065,0-.006,0,0,0-.007s0,0,.013-.006c.053-.031.1-.066.158-.1s.318-.108.055-.032c.06-.017.117-.038.177-.054.011,0,.1-.015.147-.024l.087,0,.059,0c-.044.006.15.047.207.056l.024.019c.048.035.107.067.159.1-.229-.148,0,.012.047.056.026.026.05.054.075.082a.64.64,0,0,1,.061.084c.038.069.077.138.117.206l.011.017a.063.063,0,0,0,0,.007,1.87,1.87,0,0,0,.091.322.262.262,0,0,1,0,.027c0,.06.009.12.009.18v.012a1.3,1.3,0,0,0-1.182-.009Z" transform="translate(-175.454 -219.539)" fill="#8bd4e2"/>
    <path id="Path_300" data-name="Path 300" d="M212.17,152.9l0,0,.006,0Z" transform="translate(-44.781 -32.274)" fill="#e6e6e6"/>
    <path id="Path_301" data-name="Path 301" d="M344.113,350.255h0Z" transform="translate(-176.718 -229.626)" fill="#e6e6e6"/>
    <path id="Path_302" data-name="Path 302" d="M344.113,350.257h0Z" transform="translate(-176.717 -229.626)" fill="#e6e6e6"/>
    <path id="Path_303" data-name="Path 303" d="M344.115,350.255s0,0,0,0Z" transform="translate(-176.718 -229.626)" fill="#e6e6e6"/>
    <path id="Path_304" data-name="Path 304" d="M409.946,381.858a4.7,4.7,0,0,0-5.7-2.109,4.139,4.139,0,0,0-2.358,2.2c-.045.107-.072.22-.109.33-.051.083-.113.158-.159.245a4.7,4.7,0,0,0,7.33,5.616,5.062,5.062,0,0,0,.995-6.277Zm-2.964,2.01C406.992,383.928,406.988,383.983,406.982,383.868Zm-.3-.685Zm-1.328.534C405.335,383.69,405.333,383.685,405.353,383.717Zm.315.267C405.742,384.009,405.713,384,405.668,383.984Zm.141.067.031-.014a.039.039,0,0,1-.022,0h0l.024,0,0,0-.014,0c.012,0,.014,0,.014,0,.141-.065.046-.034-.036-.008h-.005a.537.537,0,0,0-.162-.052l-.016-.008c-.045-.032-.274-.211-.062-.024-.046-.041-.092-.081-.135-.125a.617.617,0,0,1-.069-.085q-.042-.072-.081-.145l0-.026c0-.022-.006-.031-.009-.044s0-.028.006-.042a.511.511,0,0,0,.03-.132l.009-.012c.034-.047.064-.1.1-.152-.172.26.067-.029.085-.065,0-.006,0,0,0-.007s0,0,.013-.006c.053-.031.1-.066.158-.1s.318-.107.055-.032c.06-.017.117-.039.177-.054.011,0,.1-.015.147-.024l.087,0,.059,0c-.044.006.15.048.207.056l.024.019c.048.035.107.067.159.1-.229-.148,0,.012.047.055.026.026.05.054.075.082a.632.632,0,0,1,.061.084c.038.069.077.138.117.206l.011.017a.057.057,0,0,0,0,.007,1.875,1.875,0,0,0,.091.322c0,.009,0,.018,0,.027,0,.06.009.12.009.18v.012a1.3,1.3,0,0,0-1.182-.009Z" transform="translate(-188.751 -235.791)" fill="#8bd4e2"/>
    <path id="Path_305" data-name="Path 305" d="M275.17,121.905l0,0,.006,0Z" transform="translate(-58.079 -25.731)" fill="#e6e6e6"/>
    <path id="Path_306" data-name="Path 306" d="M407.113,319.255h0Z" transform="translate(-190.016 -223.082)" fill="#e6e6e6"/>
    <path id="Path_307" data-name="Path 307" d="M407.113,319.257h0Z" transform="translate(-190.015 -223.083)" fill="#e6e6e6"/>
    <path id="Path_308" data-name="Path 308" d="M407.115,319.255s0,0,0,0Z" transform="translate(-190.016 -223.082)" fill="#e6e6e6"/>
    <path id="Path_309" data-name="Path 309" d="M275.177,121.9Z" transform="translate(-58.081 -25.73)" fill="#e6e6e6"/>
    <path id="Path_310" data-name="Path 310" d="M466.113,339.255h0Z" transform="translate(-202.469 -227.304)" fill="#e6e6e6"/>
    <path id="Path_311" data-name="Path 311" d="M468.946,335.858a4.7,4.7,0,0,0-5.7-2.109,4.139,4.139,0,0,0-2.358,2.2c-.045.107-.072.22-.109.33-.051.083-.113.158-.159.244a4.7,4.7,0,0,0,7.33,5.616A5.062,5.062,0,0,0,468.946,335.858Zm-2.964,2.01C465.992,337.928,465.988,337.983,465.982,337.868Zm-.3-.685Zm-1.328.534C464.335,337.69,464.333,337.685,464.353,337.717Zm.315.267C464.742,338.009,464.713,338,464.667,337.984Zm.141.067.031-.014a.039.039,0,0,1-.022,0h0l.024,0,0,0-.014,0c.012,0,.014,0,.014,0,.141-.064.045-.033-.036-.008h-.005a.538.538,0,0,0-.162-.052l-.016-.008c-.045-.032-.274-.211-.062-.024-.046-.041-.092-.081-.135-.125a.62.62,0,0,1-.069-.085q-.042-.072-.081-.145l0-.026c0-.022-.006-.031-.009-.044s0-.028.006-.042a.512.512,0,0,0,.03-.132l.009-.012c.034-.047.064-.1.1-.152-.172.26.067-.029.085-.065,0-.006,0,0,0-.007s0,0,.013-.006c.053-.031.1-.066.158-.1s.318-.108.055-.032c.06-.017.117-.039.177-.054.011,0,.1-.015.147-.024l.087,0,.059,0c-.044.006.15.048.207.056l.024.019c.048.035.107.067.159.1-.229-.148,0,.012.047.055.026.026.05.054.075.082a.644.644,0,0,1,.061.084c.037.069.077.138.117.206l.011.017s0,0,0,.007a1.875,1.875,0,0,0,.091.322.257.257,0,0,1,0,.027c0,.06.009.12.009.18v.012a1.3,1.3,0,0,0-1.183-.009Z" transform="translate(-201.204 -226.082)" fill="#8bd4e2"/>
    <path id="Path_312" data-name="Path 312" d="M334.17,141.9l0,0,.006,0Z" transform="translate(-70.532 -29.952)" fill="#e6e6e6"/>
    <path id="Path_313" data-name="Path 313" d="M334.177,141.9Z" transform="translate(-70.534 -29.952)" fill="#e6e6e6"/>
    <path id="Path_314" data-name="Path 314" d="M466.115,339.255s0,0,0,0Z" transform="translate(-202.469 -227.304)" fill="#e6e6e6"/>
    <path id="Path_315" data-name="Path 315" d="M466.113,339.257h0Z" transform="translate(-202.468 -227.304)" fill="#e6e6e6"/>
    <path id="Path_316" data-name="Path 316" d="M439.9,383.569l-36.683,2.039a.809.809,0,0,1-.175-1.606l37.494-6.1Z" transform="translate(-189.012 -235.461)" fill="#3f3d56"/>
    <path id="Path_317" data-name="Path 317" d="M507.74,482.379l13.823-23.256,10.217,4.826s-17.605,21.989-18.166,22.621a5.41,5.41,0,1,1-5.874-4.191Z" transform="translate(-210.239 -252.604)" fill="#ffb6b6"/>
    <path id="Path_318" data-name="Path 318" d="M515.641,420.126l22.4,11.684a12.4,12.4,0,0,1,2.1,18.207L524.7,467.729l-6.726-9.114,5.184-10.84-10.038-2.647Z" transform="translate(-212.39 -244.373)" fill="#8951a0"/>
    <path id="Path_319" data-name="Path 319" d="M431.722,382.888,429.2,409.825l-11.3.019s6.483-27.412,6.718-28.224a5.41,5.41,0,1,1,7.1,1.269Z" transform="translate(-192.292 -234.4)" fill="#ffb6b6"/>
    <path id="Path_320" data-name="Path 320" d="M453.246,443.9l-26.007-4.769c-10.951-1.317-15.446-8.523-13.47-15.551l6.359-22.619,9.983,5.352-.038,12.016,13.974-1.911Z" transform="translate(-191.325 -240.328)" fill="#8951a0"/>
    <path id="Path_321" data-name="Path 321" d="M315.678,486.613h-7.151l-3.4-27.583h10.554Z" transform="translate(-64.402 -96.888)" fill="#ffb6b6"/>
    <path id="Path_322" data-name="Path 322" d="M444.872,697.62h-21.99v-.278a8.56,8.56,0,0,1,8.559-8.559h0l4.017-3.047,7.494,3.048h1.92Z" transform="translate(-193.344 -300.436)" fill="#2f2e41"/>
    <path id="Path_323" data-name="Path 323" d="M382.636,486.613h7.151l3.4-27.583H382.634Z" transform="translate(-80.762 -96.888)" fill="#ffb6b6"/>
    <path id="Path_324" data-name="Path 324" d="M514.251,697.62h21.99v-.278a8.56,8.56,0,0,0-8.559-8.559h0l-4.017-3.047-7.494,3.048h-1.92Z" transform="translate(-212.629 -300.436)" fill="#2f2e41"/>
    <path id="Path_325" data-name="Path 325" d="M436.657,606.47c.106-1.574.945-10.278.945-10.278l2.011-18.459,3.545-48.931,3.16-12.861,15.641,6.093,12.692-6.084,15.085,4.822,11.746,4.4s.02,1.886.111,4.164c.121,2.982.332,6.637.835,7.588.84,1.68.628,10.7.628,10.7s.835,18.343,1.886,20.355a13.973,13.973,0,0,1,.945,7.04c-.317.84,1.051,22.869,1.051,22.869s3.51,38.983,1.308,44.861-10.525,2.028-10.525,2.028.4-1.569-2.011-2.308-9.765-56.016-9.765-56.016-1.368-11.334-2.625-14.582-2.414-12.375-2.414-12.375-7.764-15.1-7.864-18.464c0,0-1.016-3.143-1.976.317s-3.791,11.746-3.791,11.746l-2.761,10.177-3.249,15.206-2.1,12.8S456.016,608.27,455.513,609s0,16.257,0,16.257-2.434,13.219-5.873,15.527-12.552.037-12.552.037S436.552,608.044,436.657,606.47Z" transform="translate(-196.249 -264.597)" fill="#2f2e41"/>
    <path id="Path_326" data-name="Path 326" d="M448.814,452.068l-2,25.891-3,3.108a2.9,2.9,0,0,0,.152,4.17h0l-1.654,2.837-.586,8.939a4.858,4.858,0,0,0,4.5,5.988L498,505.433a4.858,4.858,0,0,0,5.044-5.493l-4.4-33.146v-2.478l-1.971-4.786,1.013-16.034,2.357-25.45-13.7-3.538-7.427-5.11-12.9.205-7.829,6.43-10.438,1.635-7.895,1.569-1.006,2.186,2.011-.437,7.29,28.434Z" transform="translate(-196.713 -242.109)" fill="#8951a0"/>
    <circle id="Ellipse_57" data-name="Ellipse 57" cx="15.199" cy="15.199" r="15.199" transform="translate(260.262 133.42)" fill="#ffb6b6"/>
    <path id="Path_327" data-name="Path 327" d="M471.806,395.013l10.982-.56c1.407-.072,2.943-.2,3.966-1.164A6.008,6.008,0,0,0,488,391.221c1.015-2.358,2.031-4.716,3.02-7.086,1.368-3.277,2.712-6.737,2.363-10.272a6.536,6.536,0,0,0-1.9-4.285,3.628,3.628,0,0,0-4.41-.447,7.457,7.457,0,0,0-3.7-5.375,11.429,11.429,0,0,0-6.518-1.382,15.732,15.732,0,0,0-8.959,3.531,19.45,19.45,0,0,1-2.286,1.811,3.588,3.588,0,0,1-2.789.516,2.019,2.019,0,0,1-1.482-2.2,3.884,3.884,0,0,0-.993,5.128,3.584,3.584,0,0,1-3.5-.415A4.283,4.283,0,1,0,461.33,378c.666.934.418,2.2.331,3.346s.22,2.565,1.323,2.881c1.491.427,2.7-1.58,4.249-1.558a2.332,2.332,0,0,1,1.849,1.191,6.883,6.883,0,0,1,.74,2.161l1.984,8.934" transform="translate(-200.009 -232.175)" fill="#2f2e41"/>
    <path id="Path_328" data-name="Path 328" d="M946.173,572.446c0-2.354-.791-4.264-1.761-4.268H679.851c-.975,0-1.761,1.915-1.765,4.268v96.888a.879.879,0,0,1-.794.875q-1.065.1-2.13.19c-.018,0-.035,0-.053,0-.386.035-.773.062-1.159.092h0q-.3-.551-.589-1.112a.882.882,0,0,1-.1-.408V566.908c0-.65.026-1.3.07-1.95a25.006,25.006,0,0,1,.329-2.643c.742-4.079,2.42-6.841,4.325-6.85h268.3a2.055,2.055,0,0,1,.808.171,3.149,3.149,0,0,1,1,.7,6.182,6.182,0,0,1,.979,1.339,17.63,17.63,0,0,1,1.849,7c0,.026,0,.053,0,.079.061.711.092,1.436.088,2.16l.062,9.41.04,5.612.119,17.608.044,6.253.193,64.2h0a.878.878,0,0,1-.878.878h-3.53a.878.878,0,0,1-.878-.878Z" transform="translate(-246.191 -272.94)" fill="#020202"/>
    <path id="Path_329" data-name="Path 329" d="M920.035,499.652H891.528a1.521,1.521,0,0,0-1.519,1.523v45.033h31.549V501.175a1.522,1.522,0,0,0-1.523-1.523Zm-14.158,25.587a3.382,3.382,0,0,1-3.366-3.366v-5.194a3.366,3.366,0,1,1,6.732,0v5.194A3.382,3.382,0,0,1,905.877,525.239Z" transform="translate(-291.941 -261.159)" fill="#020202"/>
    <path id="Path_330" data-name="Path 330" d="M889.884,556.837v4.345a.851.851,0,0,0,.849.849h30.045a.854.854,0,0,0,.849-.849v-4.345Z" transform="translate(-291.915 -273.229)" fill="#3f3d56"/>
    <path id="Path_331" data-name="Path 331" d="M954.244,410.571H832.386a3.956,3.956,0,0,0-3.949,3.949V496.75a3.953,3.953,0,0,0,3.949,3.949H954.244a3.953,3.953,0,0,0,3.95-3.949V414.52A3.956,3.956,0,0,0,954.244,410.571Z" transform="translate(-278.945 -242.357)" fill="#020202"/>
    <path id="Path_332" data-name="Path 332" d="M953.991,414.186H834.169a2.117,2.117,0,0,0-2.112,2.117v80.192a2.116,2.116,0,0,0,2.112,2.112H953.991a2.116,2.116,0,0,0,2.112-2.112V416.3A2.117,2.117,0,0,0,953.991,414.186Z" transform="translate(-279.709 -243.12)" fill="#2a124c"/>
    <path id="Path_333" data-name="Path 333" d="M937.606,563.23H866.319a1.311,1.311,0,0,1-1.283-1.581l1.106-5.254a1.317,1.317,0,0,1,1.283-1.041H936.5a1.317,1.317,0,0,1,1.283,1.041l1.106,5.254a1.311,1.311,0,0,1-1.283,1.581Z" transform="translate(-286.664 -272.916)" fill="#2a124c"/>
    <rect id="Rectangle_285" data-name="Rectangle 285" width="2.196" height="1.317" rx="0.488" transform="translate(581.267 283.384)" fill="#e6e6e6"/>
    <rect id="Rectangle_286" data-name="Rectangle 286" width="2.196" height="1.317" rx="0.488" transform="translate(585.658 283.384)" fill="#e6e6e6"/>
    <rect id="Rectangle_287" data-name="Rectangle 287" width="2.196" height="1.317" rx="0.488" transform="translate(590.049 283.384)" fill="#e6e6e6"/>
    <rect id="Rectangle_288" data-name="Rectangle 288" width="2.196" height="1.317" rx="0.488" transform="translate(594.441 283.384)" fill="#e6e6e6"/>
    <rect id="Rectangle_289" data-name="Rectangle 289" width="2.196" height="1.317" rx="0.488" transform="translate(598.832 283.384)" fill="#e6e6e6"/>
    <rect id="Rectangle_290" data-name="Rectangle 290" width="2.196" height="1.317" rx="0.488" transform="translate(603.223 283.384)" fill="#e6e6e6"/>
    <rect id="Rectangle_291" data-name="Rectangle 291" width="2.196" height="1.317" rx="0.488" transform="translate(607.614 283.384)" fill="#e6e6e6"/>
    <rect id="Rectangle_292" data-name="Rectangle 292" width="2.196" height="1.317" rx="0.488" transform="translate(612.005 283.384)" fill="#e6e6e6"/>
    <rect id="Rectangle_293" data-name="Rectangle 293" width="2.196" height="1.317" rx="0.488" transform="translate(616.397 283.384)" fill="#e6e6e6"/>
    <rect id="Rectangle_294" data-name="Rectangle 294" width="2.196" height="1.317" rx="0.488" transform="translate(620.788 283.384)" fill="#e6e6e6"/>
    <rect id="Rectangle_295" data-name="Rectangle 295" width="2.196" height="1.317" rx="0.488" transform="translate(625.179 283.384)" fill="#e6e6e6"/>
    <rect id="Rectangle_296" data-name="Rectangle 296" width="2.196" height="1.317" rx="0.488" transform="translate(629.57 283.384)" fill="#e6e6e6"/>
    <rect id="Rectangle_297" data-name="Rectangle 297" width="2.196" height="1.317" rx="0.488" transform="translate(633.961 283.384)" fill="#e6e6e6"/>
    <rect id="Rectangle_298" data-name="Rectangle 298" width="2.196" height="1.317" rx="0.488" transform="translate(638.352 283.384)" fill="#e6e6e6"/>
    <rect id="Rectangle_299" data-name="Rectangle 299" width="2.196" height="1.317" rx="0.488" transform="translate(642.744 283.384)" fill="#e6e6e6"/>
    <rect id="Rectangle_300" data-name="Rectangle 300" width="2.196" height="1.317" rx="0.488" transform="translate(647.135 283.384)" fill="#e6e6e6"/>
    <rect id="Rectangle_301" data-name="Rectangle 301" width="2.196" height="1.317" rx="0.488" transform="translate(581.215 285.579)" fill="#e6e6e6"/>
    <rect id="Rectangle_302" data-name="Rectangle 302" width="2.196" height="1.317" rx="0.488" transform="translate(585.606 285.579)" fill="#e6e6e6"/>
    <rect id="Rectangle_303" data-name="Rectangle 303" width="2.196" height="1.317" rx="0.488" transform="translate(589.997 285.579)" fill="#e6e6e6"/>
    <rect id="Rectangle_304" data-name="Rectangle 304" width="2.196" height="1.317" rx="0.488" transform="translate(594.389 285.579)" fill="#e6e6e6"/>
    <rect id="Rectangle_305" data-name="Rectangle 305" width="2.196" height="1.317" rx="0.488" transform="translate(598.78 285.579)" fill="#e6e6e6"/>
    <rect id="Rectangle_306" data-name="Rectangle 306" width="2.196" height="1.317" rx="0.488" transform="translate(603.171 285.579)" fill="#e6e6e6"/>
    <rect id="Rectangle_307" data-name="Rectangle 307" width="2.196" height="1.317" rx="0.488" transform="translate(607.562 285.579)" fill="#e6e6e6"/>
    <rect id="Rectangle_308" data-name="Rectangle 308" width="2.196" height="1.317" rx="0.488" transform="translate(611.953 285.579)" fill="#e6e6e6"/>
    <rect id="Rectangle_309" data-name="Rectangle 309" width="2.196" height="1.317" rx="0.488" transform="translate(616.345 285.579)" fill="#e6e6e6"/>
    <rect id="Rectangle_310" data-name="Rectangle 310" width="2.196" height="1.317" rx="0.488" transform="translate(620.736 285.579)" fill="#e6e6e6"/>
    <rect id="Rectangle_311" data-name="Rectangle 311" width="2.196" height="1.317" rx="0.488" transform="translate(625.127 285.579)" fill="#e6e6e6"/>
    <rect id="Rectangle_312" data-name="Rectangle 312" width="2.196" height="1.317" rx="0.488" transform="translate(629.518 285.579)" fill="#e6e6e6"/>
    <rect id="Rectangle_313" data-name="Rectangle 313" width="2.196" height="1.317" rx="0.488" transform="translate(633.909 285.579)" fill="#e6e6e6"/>
    <rect id="Rectangle_314" data-name="Rectangle 314" width="2.196" height="1.317" rx="0.488" transform="translate(638.3 285.579)" fill="#e6e6e6"/>
    <rect id="Rectangle_315" data-name="Rectangle 315" width="2.196" height="1.317" rx="0.488" transform="translate(642.692 285.579)" fill="#e6e6e6"/>
    <rect id="Rectangle_316" data-name="Rectangle 316" width="2.196" height="1.317" rx="0.488" transform="translate(647.083 285.579)" fill="#e6e6e6"/>
    <rect id="Rectangle_317" data-name="Rectangle 317" width="17.565" height="1.317" rx="0.488" transform="translate(602.293 288.215)" fill="#e6e6e6"/>
    <path id="Path_334" data-name="Path 334" d="M948.863,427.952H836.747a.446.446,0,1,1,0-.892H948.863a.446.446,0,1,1,0,.892Z" transform="translate(-280.605 -245.837)" fill="#8951a0"/>
    <ellipse id="Ellipse_58" data-name="Ellipse 58" cx="2.613" cy="2.671" rx="2.613" ry="2.671" transform="translate(561.161 173.605)" fill="#ed2390"/>
    <ellipse id="Ellipse_59" data-name="Ellipse 59" cx="2.613" cy="2.671" rx="2.613" ry="2.671" transform="translate(570.187 173.605)" fill="#ed2390"/>
    <ellipse id="Ellipse_60" data-name="Ellipse 60" cx="2.613" cy="2.671" rx="2.613" ry="2.671" transform="translate(579.214 173.605)" fill="#ed2390"/>
    <path id="Path_335" data-name="Path 335" d="M970.244,418.243h-6.411a.486.486,0,1,0,0,.971h6.412a.486.486,0,1,0,0-.971Z" transform="translate(-307.421 -243.976)" fill="#ed2390"/>
    <path id="Path_336" data-name="Path 336" d="M970.244,420.553h-6.411a.486.486,0,1,0,0,.971h6.412a.486.486,0,1,0,0-.971Z" transform="translate(-307.421 -244.464)" fill="#ed2390"/>
    <path id="Path_337" data-name="Path 337" d="M970.244,422.86h-6.411a.486.486,0,1,0,0,.971h6.412a.486.486,0,1,0,0-.971Z" transform="translate(-307.421 -244.95)" fill="#ed2390"/>
    <rect id="Rectangle_318" data-name="Rectangle 318" width="17.82" height="3.811" rx="1.905" transform="translate(605.337 206.407)" fill="#ed2390"/>
    <rect id="Rectangle_319" data-name="Rectangle 319" width="35.921" height="3.811" rx="1.905" transform="translate(596.287 214.028)" fill="#ed2390"/>
    <rect id="Rectangle_320" data-name="Rectangle 320" width="35.921" height="3.811" rx="1.905" transform="translate(596.287 221.649)" fill="#ed2390"/>
    <path id="Path_338" data-name="Path 338" d="M523,423.4l-6.458-3.089,8.872-26.995,9.532,4.558Z" transform="translate(-109.026 -83.017)" fill="#ffb6b6"/>
    <path id="Path_339" data-name="Path 339" d="M707.119,616.465c-.47.294-.939.583-1.414.873-.944.579-1.9,1.148-2.851,1.708-.479.28-.963.56-1.442.835v.014l-.028,0-.009,0-.731.18-1.048-2.771-.484-1.276-.683-1.807-1.252-3.307-6.594-17.41,10.252-2.529.384,1.57h0l.19.778,3.582,14.526.73,2.97.024.09.441,1.774.38,1.537.422,1.717Z" transform="translate(-249.848 -280.437)" fill="#ffb6b6"/>
    <path id="Path_340" data-name="Path 340" d="M766.233,537.453c-.65,1.044-1.314,2.083-1.983,3.112q-1.864,2.875-3.828,5.664s0,0-.009.009a13.392,13.392,0,0,1-2.514,1.836c-.038.029-.081.047-.119.071a9.262,9.262,0,0,1-2.116.849l-.8.2c-.958.228-1.907.422-2.851.593q-2.519.448-4.991.645c-.133.014-.266.024-.4.033a77.181,77.181,0,0,1-20.294-1.618c-3.406-.645-6.883-1.418-10.484-2.22-1.176-.266-2.358-.527-3.553-.787-.09-.019-.185-.043-.28-.062-1.708-.375-3.444-.745-5.223-1.11-2.239-.46-4.549-.906-6.95-1.328l.171,3.383a25.459,25.459,0,0,0,1.6,7.6c1.025,3,1.836,5.37.123,10.308l-.826,2.391a8.166,8.166,0,0,1-.84,7.225l-.166.252,6.883,17.415.446,1.129h-3.525l-4.336,0h-7.348l-10.6-21.272-.508-1.015v-.052l1.1-40.878c.014-.361.043-.726.09-1.086a12.428,12.428,0,0,1,4.73-8.368,11.969,11.969,0,0,1,8.914-2.438l3.629.47,7.415.958,5.223.678.1.014,15.4,1.992,1.105-4.507.2-.076,6.485-2.377,22.429-8.221.057-.019,1.475-.541.176.285c.052.085.1.171.152.256a43.957,43.957,0,0,1,3.544,8.226,129.141,129.141,0,0,1,3.724,14.217q.064.313.114.569l.014.052c.014.081.024.133.029.147A13.267,13.267,0,0,1,766.233,537.453Z" transform="translate(-247.807 -262.565)" fill="#2f2e41"/>
    <path id="Path_341" data-name="Path 341" d="M761.721,520.676c-.071-.3-.161-.612-.256-.911a64.883,64.883,0,0,0-2.628-6.651c-1.12-2.467-2.462-5.109-4.061-7.97q-1.16-2.078-2.5-4.322-.669-1.124-1.39-2.291a1.194,1.194,0,0,0-.062-.1l-.138-.228-22.192,2.97-8.264,1.105-.493,4.118-.119,1.02s0,0,0,0l-.332,2.78v0l-.441,3.672-.038,0-12.263-1.589-12.638-1.637-6.789-.878a11.961,11.961,0,0,0-8.914,2.438,12.434,12.434,0,0,0-4.73,8.368c-.043.332-.071.674-.085,1.01l-6.4,15.176a97.915,97.915,0,0,0-7.239,28.482l-4.7,15.014.669.062,9.953.925,2.628.247,5.788-8.449c.659-.963,1.286-1.954,1.869-2.97a45.109,45.109,0,0,0,2.557-5.142l12.519-29.792q1.452.249,2.875.474,6.582,1.067,12.638,1.741c13.126,1.466,24.493,1.58,34.612.337q4.262-.519,8.24-1.366,1.459-.306,2.88-.659c.223-.052.441-.1.659-.161a12.106,12.106,0,0,0,8.468-7.913A12.353,12.353,0,0,0,761.721,520.676Z" transform="translate(-242.349 -260.852)" fill="#2f2e41"/>
    <path id="Path_342" data-name="Path 342" d="M652.766,622.174l-6.988-3.349-1.1-.527-1.75,4.3-12.22,2.69a2.9,2.9,0,0,0-.474,5.517l11.94,4.872,3.79-3.411-.93,4.578,4.5,1.836,4.929-15.688Z" transform="translate(-236.73 -286.202)" fill="#2f2e41"/>
    <path id="Path_343" data-name="Path 343" d="M581.774,417.469l.447,1.129h-.447Z" transform="translate(-122.795 -88.116)" fill="#2f2e41"/>
    <path id="Path_344" data-name="Path 344" d="M706.893,616.393l-7.322,2.537-1.149.4,1.78,4.286-6.791,10.51a2.9,2.9,0,0,0,3.545,4.254l11.913-4.94.293-5.091,2.56,3.907,4.487-1.86-7.536-14.616Z" transform="translate(-250.347 -285.67)" fill="#2f2e41"/>
    <path id="Path_345" data-name="Path 345" d="M654.135,415.555a5.2,5.2,0,0,0,7.777,1.763l15.4,10.221.029-9.6L662.713,409.7a5.228,5.228,0,0,0-8.577,5.853Z" transform="translate(-242.03 -241.795)" fill="#ffb6b6"/>
    <path id="Path_346" data-name="Path 346" d="M668.874,421.041l7.183-8.172,29.249,17.364,38.773-3.551a13.111,13.111,0,0,1,14.251,14.265h0a13.125,13.125,0,0,1-14.264,11.847L700.4,448.751Z" transform="translate(-245.266 -242.841)" fill="#ccc"/>
    <path id="Path_347" data-name="Path 347" d="M773.064,423.328l-.067-.085h0a28.328,28.328,0,0,0-27.417,14.206l-3.29,5.8c-10.644,13.012-2.909,21.985-2.446,23.32L736.148,483.6l.828,5.7.414,1.693,42.172,22.035c2.4-11.536.079-21.366-8.668-28.876l8.463-26.333A37.1,37.1,0,0,0,773.064,423.328Z" transform="translate(-259.466 -245.002)" fill="#ccc"/>
    <path id="Path_348" data-name="Path 348" d="M735.833,578.784H722.306a3.09,3.09,0,0,1-3.057-2.656,68.78,68.78,0,0,1,0-18.524,3.09,3.09,0,0,1,3.006-2.656,16.923,16.923,0,0,1,13.625,0,3.054,3.054,0,0,1,2.324,1.121,3.125,3.125,0,0,1,.645,2.6,41.58,41.58,0,0,0,0,16.385,3.125,3.125,0,0,1-.645,2.6A3.054,3.054,0,0,1,735.833,578.784Z" transform="translate(-255.766 -272.528)" fill="#ed2390"/>
    <path id="Path_349" data-name="Path 349" d="M735.406,563.9H724.02a.712.712,0,0,1,0-1.423h11.385a.712.712,0,0,1,0,1.423Z" transform="translate(-256.756 -274.42)" fill="#fff"/>
    <path id="Path_350" data-name="Path 350" d="M735.406,571.117H724.02a.712.712,0,0,1,0-1.423h11.385a.712.712,0,1,1,0,1.423Z" transform="translate(-256.756 -275.943)" fill="#fff"/>
    <path id="Path_351" data-name="Path 351" d="M735.406,578.333H724.02a.712.712,0,0,1,0-1.423h11.385a.712.712,0,0,1,0,1.423Z" transform="translate(-256.756 -277.466)" fill="#fff"/>
    <path id="Path_352" data-name="Path 352" d="M652.833,416.784H639.307a3.09,3.09,0,0,1-3.057-2.656,68.772,68.772,0,0,1,0-18.524,3.09,3.09,0,0,1,3.005-2.656,16.924,16.924,0,0,1,13.626,0,3.054,3.054,0,0,1,2.324,1.121,3.125,3.125,0,0,1,.645,2.6,41.578,41.578,0,0,0,0,16.385,3.125,3.125,0,0,1-.645,2.6A3.054,3.054,0,0,1,652.833,416.784Z" transform="translate(-238.248 -238.335)" fill="#ed2390"/>
    <path id="Path_353" data-name="Path 353" d="M652.406,401.9H641.02a.712.712,0,0,1,0-1.423h11.385a.712.712,0,0,1,0,1.423Z" transform="translate(-239.237 -240.226)" fill="#fff"/>
    <path id="Path_354" data-name="Path 354" d="M652.406,409.117H641.02a.712.712,0,0,1,0-1.423h11.385a.712.712,0,0,1,0,1.423Z" transform="translate(-239.237 -241.749)" fill="#fff"/>
    <path id="Path_355" data-name="Path 355" d="M652.406,416.333H641.02a.712.712,0,0,1,0-1.423h11.385a.712.712,0,0,1,0,1.423Z" transform="translate(-239.237 -243.272)" fill="#fff"/>
    <path id="Path_356" data-name="Path 356" d="M351.833,460.784H338.306a3.09,3.09,0,0,1-3.057-2.656,68.774,68.774,0,0,1,0-18.524,3.09,3.09,0,0,1,3.005-2.656,16.924,16.924,0,0,1,13.625,0,3.054,3.054,0,0,1,2.324,1.121,3.125,3.125,0,0,1,.645,2.6,41.585,41.585,0,0,0,0,16.385,3.125,3.125,0,0,1-.645,2.6A3.054,3.054,0,0,1,351.833,460.784Z" transform="translate(-174.715 -247.622)" fill="#ed2390"/>
    <path id="Path_357" data-name="Path 357" d="M351.406,445.9H340.02a.712.712,0,1,1,0-1.423h11.385a.712.712,0,1,1,0,1.423Z" transform="translate(-175.704 -249.513)" fill="#fff"/>
    <path id="Path_358" data-name="Path 358" d="M351.406,453.117H340.02a.712.712,0,1,1,0-1.423h11.385a.712.712,0,1,1,0,1.423Z" transform="translate(-175.704 -251.037)" fill="#fff"/>
    <path id="Path_359" data-name="Path 359" d="M351.406,460.333H340.02a.712.712,0,1,1,0-1.423h11.385a.712.712,0,0,1,0,1.423Z" transform="translate(-175.704 -252.56)" fill="#fff"/>
    <path id="Path_360" data-name="Path 360" d="M743.344,557.247a5.2,5.2,0,0,0,1.3-7.868l9.29-15.976-9.588.54-7.351,15.088a5.229,5.229,0,0,0,6.352,8.215Z" transform="translate(-259.313 -268.283)" fill="#ffb6b6"/>
    <path id="Path_361" data-name="Path 361" d="M747.917,524.529l-8.584-6.686,15.6-30.228-5.845-38.494A13.111,13.111,0,0,1,762.48,434.05h0a13.125,13.125,0,0,1,12.672,13.536l-1.444,43.83Z" transform="translate(-260.138 -247.311)" fill="#ccc"/>
    <path id="Path_362" data-name="Path 362" d="M221.9,525.034a5.243,5.243,0,0,0-.729-8.007l8.348-41.466-9.219,2.96-6.683,40.108a5.272,5.272,0,0,0,8.283,6.4Z" transform="translate(-149.016 -256.074)" fill="#9e616a"/>
    <path id="Path_363" data-name="Path 363" d="M233.754,425.91l-5.72-4.318s-5.046-.357-5.94,8.743-2.729,26.834-2.729,26.834l-8.753,40.54,12.116,2.659,9.375-43.75,5.624-12.992Z" transform="translate(-148.54 -244.683)" fill="#ccc"/>
    <path id="Path_364" data-name="Path 364" d="M96.057,307.586l32.233-.537,2.686-22.026H96.057Z" transform="translate(-20.274 -60.16)" fill="#9e616a"/>
    <path id="Path_365" data-name="Path 365" d="M132.828,477.748h7.441l3.54-28.7H132.826Z" transform="translate(-28.035 -94.781)" fill="#9e616a"/>
    <path id="Path_366" data-name="Path 366" d="M73.738,478.6l7.441-.053,3.339-28.726-9.678,2.22Z" transform="translate(-15.563 -94.945)" fill="#9e616a"/>
    <path id="Path_367" data-name="Path 367" d="M102.787,260.078l-1.686,4.383.337,4.384,33,11.429L132.8,261.089l-3.71-4.384Z" transform="translate(-21.338 -54.183)" fill="#ffb6b6"/>
    <circle id="Ellipse_61" data-name="Ellipse 61" cx="11.786" cy="11.786" r="11.786" transform="translate(83.819 142.873)" fill="#9e616a"/>
    <path id="Path_368" data-name="Path 368" d="M262.026,677.938l11.763-.7v5.04L284.973,690a3.148,3.148,0,0,1-1.789,5.739h-14l-2.414-4.985-.942,4.985h-5.28Z" transform="translate(-159.079 -298.642)" fill="#2f2e41"/>
    <path id="Path_369" data-name="Path 369" d="M202.083,678.812l11.758-.784.035,5.04,11.237,7.645a3.148,3.148,0,0,1-1.749,5.751l-14,.1-2.449-4.968L206,696.585l-5.28.037Z" transform="translate(-146.453 -298.809)" fill="#2f2e41"/>
    <path id="Path_370" data-name="Path 370" d="M202.283,622.325l5.418-43.311,6.447-45.664c-4.721-8.768,5.909-35.994,5.909-35.994l1.5.072,33.963,6.407-.007-.033c6.947,18.947,9.248,28.307,8.867,48.483l-1.369,72.53h.429a2.686,2.686,0,1,1,0,5.372h-13.43a2.686,2.686,0,1,1,0-5.372h.346l-12.328-86.362-10.452,36.261-11.819,47.276c4.3-1.074,3.63,1.415,3.63,2.825a2.686,2.686,0,0,1-2.686,2.686H203.274a2.683,2.683,0,0,1-.991-5.178Z" transform="translate(-146.424 -260.675)" fill="#2f2e41"/>
    <path id="Path_371" data-name="Path 371" d="M221.913,481.549l1.074-10.744a2.142,2.142,0,0,1,1.937-1.609c.448-5.118,2.331-27.2,2.444-28.162l0-.041.857-18.3a2.706,2.706,0,0,1,2.526-2.573l4.524-.3a.239.239,0,0,0,.231-.239,3.8,3.8,0,0,1,3.8-3.8h13.394a3.562,3.562,0,0,1,3.533,3.118.236.236,0,0,0,.241.213h0a6.363,6.363,0,0,1,6.4,5.278c1.831,10.654,5.5,34.833,3.686,48.276-.632,4.68.73.973.969,4.889a2.881,2.881,0,0,1-.717,2.089,2.078,2.078,0,0,1,1.251,2.641l.235-.058a2.149,2.149,0,0,1-2.609,1.558l-35.041,4.748C229.507,488.246,221.623,482.7,221.913,481.549Z" transform="translate(-150.924 -243.457)" fill="#ccc"/>
    <path id="Path_372" data-name="Path 372" d="M334.519,441.949a5.243,5.243,0,0,1-7.384,3.181l-13.547,12.363-1.8-9.514,13.148-10.251a5.272,5.272,0,0,1,9.581,4.222Z" transform="translate(-169.895 -247.541)" fill="#9e616a"/>
    <path id="Path_373" data-name="Path 373" d="M276.991,429.431s-4.724-10.675-10.69-8.553-2.886,12.479-2.886,12.479l22.414,33.775s32.33-20.739,28.4-20.885-5.107-7.3-5.107-7.3l-17.087,8.538-.578-3.039-.927.927-2.391-1.882Z" transform="translate(-159.518 -244.473)" fill="#ccc"/>
    <circle id="Ellipse_62" data-name="Ellipse 62" cx="16.455" cy="16.455" r="16.455" transform="translate(487.422 140.322)" fill="#ffb6b6"/>
    <path id="Path_374" data-name="Path 374" d="M818.2,414.076a14.27,14.27,0,0,1-7.844,5.523,16.405,16.405,0,0,1-3.905.663,14.767,14.767,0,0,0-1.161-4.338,12.187,12.187,0,0,1-.6,4.328,14.506,14.506,0,0,1-5.709-1.53,12.579,12.579,0,0,1-6.731-9.028c-.7-4.5,1.344-8.92,2.081-13.414s-.65-10.186-5.049-11.367c-3.35-.9-2.975-.511-5.76,1.557,2.9,4.283-7.8,19.98-12.182,18.612-2.476-.774-4.061-3.046-4.572-3.046-3.441,5.929,3.039,15.918-3.492,17.992l.538-.538c3.942-4.849-4.3-15.113-.355-19.962,1.1-1.357,2.271-2.964,1.946-4.68-.308-1.631-2.9-2.494-3.655-1.154a6.16,6.16,0,0,0-3.983-8.094c-2.961-.714-2.907.166-5.878.548a14.746,14.746,0,0,0-1.079-3.726,12.09,12.09,0,0,1-.443,3.8,4.768,4.768,0,0,1-2.883-1.042c-2.423-1.953-1.932-6.054.23-8.291s5.384-3.042,8.453-3.563c.892-6.213,18.035-6.861,20.307-.653.968-4.636,6.771-7.042,11.282-5.6s7.641,5.651,9.289,10.091,2.108,9.211,3.123,13.834,2.731,9.329,6.264,12.48,9.289,4.189,13.011,1.266a10.42,10.42,0,0,1-1.242,9.34Z" transform="translate(-261.517 -233.086)" fill="#2f2e41"/>
    <path id="Path_375" data-name="Path 375" d="M1024.93,472.849l-2.3,11.558c-.174.884-.355,1.783-.552,2.674a11.273,11.273,0,0,0-5.791.323,54.045,54.045,0,0,1,3.976,6.651c-1.452,4.473-3.582,8.607-7.148,11.6a17.924,17.924,0,0,1-17.317,3.045l.1-.458c-3.834-7.44-1.751-16.82,3.014-23.692a46.067,46.067,0,0,1,8.56-9.049c3.219-2.682,6.7-5.089,10.146-7.463a4.726,4.726,0,0,1,7.313,4.812Z" transform="translate(-313.871 -254.31)" fill="#ffcd05"/>
    <path id="a4b268fa-75d0-4ac1-9d87-14bdca948464-2189-2" data-name="a4b268fa-75d0-4ac1-9d87-14bdca948464-2189" d="M996.935,542.773c-.969-7.063-1.967-14.216-1.287-21.356a33.585,33.585,0,0,1,6.476-17.61,29.293,29.293,0,0,1,7.516-6.811c.752-.473,1.443.717.7,1.189a27.848,27.848,0,0,0-11.016,13.291c-2.4,6.1-2.783,12.75-2.367,19.229.25,3.919.78,7.81,1.314,11.7a.71.71,0,0,1-.481.847.693.693,0,0,1-.847-.481Z" transform="translate(-314.191 -260.576)" fill="#f2f2f2"/>
    <path id="Path_376" data-name="Path 376" d="M869.541,701.838l-736.662.243a.939.939,0,0,1,0-1.879l736.662-.242a.939.939,0,1,1,0,1.879Z" transform="translate(-131.934 -303.438)" fill="#cacaca"/>
    <path id="Path_377" data-name="Path 377" d="M221.763,380.326c-1.808.867-3.831-.438-5.391-1.731l.558.482c-2.758,2.683-4.048,6.544-4.678,10.345s-.7,7.679-1.5,11.449-2.443,7.549-5.523,9.855c-4.125,3.089-9.815,2.891-14.878,1.944l-.2-.038a30.907,30.907,0,0,0,1.628-12.253,28.1,28.1,0,0,1-6.746,11.058,64.511,64.511,0,0,1-9.8-3.57c-2.047-.942-4.251-2.231-4.82-4.412-.57-2.165.753-4.436,2.522-5.8s3.939-2.08,5.954-3.054,4-2.352,4.808-4.438c1.858-4.8-3.434-10.308-1.372-15.026,1.017-2.32,3.508-3.582,5.85-4.555a85.855,85.855,0,0,1,10.986-3.706c3.284-.866,6.714-1.54,10.06-.972s6.624,2.6,7.828,5.781c2.009.679,4.142,1.444,5.432,3.136S223.677,379.409,221.763,380.326Z" transform="translate(-140.029 -232.884)" fill="#2f2e41"/>
    <path id="Path_378" data-name="Path 378" d="M250.176,376.413c-5.171-4.082-9.352-3.385-12.577-.849-.542-.6-2.85,1.056-3.631.818l-2.826,5.3c-1.454,2.566-2.051,5.185-1.816,6.66-2.675,7.5,3.668,12.566,11.169,15.241a14.313,14.313,0,0,0,9.282.134l.092-1.278.568,1.048s6.857,14.12,8.478,14.754c-.983-2.551-3.576-14.673-4.3-17.2-.993-3.438-.315-8.9.269-12.249a18.978,18.978,0,0,0,.056-6.246l-.014-.09,1.6,3.239,3.6-2.264C258.754,379.428,258.726,374.634,250.176,376.413Z" transform="translate(-152.358 -234.533)" fill="#2f2e41"/>
  </g>
</svg>
